<svg xmlns="http://www.w3.org/2000/svg" viewBox="0 0 432 288"><defs><style>.cls-1{fill:#ac80af;}.cls-2{fill:#443721;}.cls-3{fill:#d8d8d8;}.cls-4{fill:#5d6bc1;}.cls-5{fill:#eac3ed;}.cls-6{fill:#bcae8a;}.cls-7{fill:#f4e311;}.cls-8{fill:#dbc81d;}.cls-9{fill:#494949;}.cls-10{fill:#adadad;}.cls-11{fill:#383838;}.cls-12{fill:#6d6150;}</style></defs><title>Work smarter not harder</title><g id="Layer_3" data-name="Layer 3"><rect class="cls-1" width="432" height="288"/><circle class="cls-2" cx="66.22" cy="90.66" r="46.65" transform="translate(-19.06 17.92) rotate(-13.28)"/><path class="cls-3" d="M66.22,40.05a50.61,50.61,0,1,0,50.61,50.61A50.61,50.61,0,0,0,66.22,40.05Zm0,97.25a46.65,46.65,0,1,1,46.65-46.64A46.64,46.64,0,0,1,66.22,137.3Z" transform="translate(0 0.28)"/><path class="cls-3" d="M72.26,163.44c0,1.81-12.08,1.51-12.08,0V139.39H72.26Z" transform="translate(0 0.28)"/></g><g id="Layer_2" data-name="Layer 2"><rect class="cls-4" x="132.82" y="37.38" width="166.36" height="213.23"/></g><g id="Layer_1" data-name="Layer 1"><path class="cls-5" d="M363.43,74.17s-1.23-.78-4.91-.78-4.9.78-4.9.78V85s1.22-.78,4.9-.72,4.91.72,4.91.72Z" transform="translate(0 0.28)"/><polygon class="cls-6" points="363.43 206.07 358.52 204.45 353.62 206.07 358.52 221.67 358.52 221.67 363.43 206.07"/><rect class="cls-7" x="356.07" y="85.28" width="4.91" height="120.22"/><polygon class="cls-8" points="356.07 85.28 353.62 85.28 353.62 206.14 356.07 205.5 356.07 85.28"/><polygon class="cls-8" points="360.98 85.28 363.43 85.28 363.43 206.14 360.98 205.5 360.98 85.28"/><path class="cls-9" d="M357.41,217.83l1.12,3.56h0l1.11-3.51s-.07-.13-1.12-.16S357.41,217.83,357.41,217.83Z" transform="translate(0 0.28)"/><path class="cls-10" d="M363.43,77.91s-1.23-.78-4.91-.78-4.9.78-4.9.78V88.74s1.22-.78,4.9-.72,4.91.72,4.91.72Z" transform="translate(0 0.28)"/><path class="cls-1" d="M237,174.57c1.46,2.78,2.53,4.92,3.69,7,1,1.83,1.1,3.44-1,4.45-1.95.94-3.93,2.29-5.89-.22a87.81,87.81,0,0,0-7.64-9.19,133.31,133.31,0,0,0-10.87-9.08c-.51-.4-1.68-.22-2.46,0-7.23,2-14.07.68-20.71-2.34a8.74,8.74,0,0,1-5.61-8.93c.15-5.36-.32-5.68-5.48-6.25-6.92-.77-13.64-2.37-16.95-9.34a29,29,0,0,1-2.48-18.48c2.83-13.86,12-22.92,24.19-28.16,15.22-6.52,31.45-7.26,47.69-3.73,10.35,2.25,18.68,8,25.74,15.7,8.57,9.28,15.25,19.66,16.94,32.52a25.85,25.85,0,0,1-5,19.78,9.69,9.69,0,0,1-7.86,4.27c-1.79,0-2.85.49-3.35,2.37-1.35,5.15-5.08,7.61-10.12,8.27C245.86,173.73,241.89,174.06,237,174.57Zm-19.7-23.86c1.86,4.79,5.63,5.36,8.27,1.37.49,3.28,2.53,3.16,5.09,2.66a15.83,15.83,0,0,1,5.66,0c3.64.62,7.2,2.08,10.84,2.27,5.5.27,8.26-3.5,7.3-8.92-.37-2.11-1.12-3.35-3.68-3.1-1.57.15-3.22-.7-4.85-.8a35.6,35.6,0,0,0-6.28.12,25.62,25.62,0,0,0-4.37,1.28c2.73-2.15,6.71-2.71,6.51-7.45l-3.54.32c5.91-3.25,8.54-8.64,9.78-14.61,1.2-5.73,3.28-11.75-1.25-17.28a5.07,5.07,0,0,1,2.31,1.19,4.49,4.49,0,0,0,6.49.4c2.13-1.84-1.11-2.9-1.93-4.34a3.54,3.54,0,0,0-1.17-1.17c-1.16-.75-2.38-1.91-3.58-1.92-.79,0-1.59,1.72-2.89,3.26.2-2.41.35-4.18.56-6.65-1.77.89-3,1.94-4.39,2.08s-2.61-.72-4.59-1.34l7-.39c-3.94-3.5-9.1-3.28-11.73-.4a5.21,5.21,0,0,1-2.41,1.28c-3.11.89-6.16,1.81-7.75,5,3.21,4,3.09,4.64-1,5.53-5.8,1.27-10.71,8.53-9.72,14.51.41,2.49,1.06,4.93,1.67,7.71,1.83-1.11,3.91-2.51,6.11-3.66,3-1.6,5.27-3.39,3.51-7.29a6.35,6.35,0,0,1,0-2.35c2,5.3,3.3,6.65,7.13,6.76,4.17.13,5.93-1.42,7.76-6.7.48-1.38,1.12-2.7,1.69-4l1,.44c-1.72,3.85-3.45,7.7-5.35,11.94l1.93,3.37c-3.7-3.29-10.63-4.27-15.14-1.45a124.07,124.07,0,0,0-11.88,8.51c-3.61,2.89-3.79,7.53-.85,11a1.44,1.44,0,0,1,.28.77c.15,1.45.27,2.91.4,4.25-1.93-2.51-4.3-1-6.71.14.41-.68.8-1.31,1.34-1.49,2.9-1,2.71-2.63,1.67-5.12-.65-1.57-.23-3.65-.07-5.48a31.25,31.25,0,0,1,.92-4.14c-3.45-1.33-6.56-1.25-9.19.73a57.88,57.88,0,0,0-9.14,8.17,7.15,7.15,0,0,0-1.2,6.08c1.23,3,3.62,5.61,5.29,8l-2.62-.42c2.31,8,20.43,8.72,33.21,1.25-3-.62-2.64-5.09-6.84-4.35-4,.7-3.09,4.32-4.79,6.58.87-4.2-1.39-4.84-4.77-4.53a32.54,32.54,0,0,1,6.41-2.13C216.46,155.61,217.41,153.78,217.29,150.71Zm8.2-57.48c.51-3.37-2.26-2.84-3.83-3.13-6.58-1.22-9.7-.13-11,3.81-1-3-2.56-3-4.78-1.48a51.39,51.39,0,0,1-5.79,3l-.44-1,5.61-2.21c-6.39-1-13.77,1.58-14.4,4l6.73,3.43c-1.81,3.81.29,8.57,3.68,9.42,1.79.45,3-.3,3.14-2.36.18-2.94.42-5.88.63-8.82l1.21.13c-.2,1.56-.33,3.14-.62,4.69-.71,3.73.49,4.87,4,3.69.48-.15.94-.34,1.41-.52-1.7,1.67-3.79,2.58-5.69,3.78-1,.65-2.51,2-2.37,2.73.71,3.89-1.23,8.16,1.59,11.74,0,0-.2.25.05-.05-1.54-1-3.2-3-4.46-2.82-5,.88-9.81,2.46-14.7,3.83-.37.1-.67.55-1,.87-1.42,1.5-2.78,3.08-4.27,4.52-2.07,2-2.06,3.83.34,5.46a38.44,38.44,0,0,0,4,2.1c-1.79.19-4,.3-4.93-.74a25.68,25.68,0,0,0-10.3-6.66s0-.32,0-.42h9.33l-2.5-2.77c3.21,1.2,5.38.37,7.27-2.38A5.42,5.42,0,0,1,187.2,123c5.05,0,8.79-2.84,12.63-5.34,1-.65,2-2.88,1.6-3.76-1.1-2.48-2.53-5.12-4.57-6.78s-2.73-2.63-1.84-5.1c.32-.89-1-3.37-1.32-3.32a45.28,45.28,0,0,0-6.35,1.73l1.41,3.36c-5.06,1.11-7.4,4-6.34,7.21l11.29,2.22-.22,1c-1.78-.4-3.57-.8-5.35-1.22-3.23-.77-4.76.16-5.62,3.31a29.43,29.43,0,0,1-1.26,3.17l-.6-.18.48-2.72c-.92-.44-2-.6-2.44-1.21-2.33-3.09-4.52-1.66-6.82,0-7.25,5.09-7.12,12.82-7.23,20.4,0,2.09.85,4.28,3.21,4.37,1.54.06,3.13-1.15,4.51-1.72,1.82,3.75,5.94,4.89,10,5.79,6,1.33,7.48-5,11.33-6.78l-6-5.84.68-.71c.71.6,1.4,1.23,2.14,1.79,2.94,2.24,4.2,2.05,5.83-1.18,1-1.94,1.59-4.06,2.37-6.1l.72.07L198.1,134c2.72,0,5.13,0,7.53,0,5.05,0,7.71-4.19,5.5-8.73-2.94-6.07.76-15.29,6.87-17.09,3.93-1.17,4.2-1.86,2.26-5.94l15.48-8.45C232.33,90.34,229,93.47,225.49,93.23Zm43.57,50.28-.87-.17V130.27c.38-1.08,1.61-3,1.54-4.89a6.18,6.18,0,0,0-2.69-4.31c-.68-.43-2.69,1.1-4,1.92-.62.39-.86,1.41-1.48,1.76-1.16.65-2.67,1.65-3.68,1.34s-2-1.9-2.4-3.12a34.06,34.06,0,0,1-.71-6l2.23,3.36,2.66-3.63a9.06,9.06,0,0,1-1.35,3.68,8.6,8.6,0,0,0-1.15,2.7c0,.37,1.2,1.33,1.65,1.21a5.78,5.78,0,0,0,2.67-1.59c1.47-1.54,2.76-3.27,4.52-5.39a13,13,0,0,0-9.83-6.94c-4.82-.84-4.9-.93-5.14,3.79-.11,2-.65,3.93-.85,5.91a35,35,0,0,0-.32,6.29c.29,3.47,3.65,7.11,6.68,7.41,3.48.35,5.32-1.61,6.21-4.75,0-.08.34-.09.73-.18a16.63,16.63,0,0,1-2.58,15.39c.79-3.61,2.7-7.09,1.05-12l-5.38,6.88,1-3.17-9.48-6.09c-1.51,2.42-3.33,5.15-4.94,8-1.31,2.33-.7,4.18,2.11,4.64,4,.65,7.95,1.09,11,1.49-.16,1.19-1.14,3.41-.44,4.77.58,1.12,3.15,1.7,4.81,1.64s3.32-1.17,5.22-1.92c-2.59,3.73-6.22,3.72-9.85,3.39a13.63,13.63,0,0,0-1.59,3.45,4.26,4.26,0,0,0,.67,3.22c3,3.06,11.41,2.34,14-1.1a6.71,6.71,0,0,0,.61-2.33c-.82-.06-1.79-.42-2.42-.1a40,40,0,0,0-4.29,2.8l-.71-2.58a40.76,40.76,0,0,1,5.37-1.63c5.08-.83,5.23-.93,4.77-5.36a4.9,4.9,0,0,0,1.44-2.74c.24-2.73-.94-4.63-3.84-5.45a12.54,12.54,0,0,1-.27,1.77A14.66,14.66,0,0,1,269.06,143.51ZM189.71,95.92l-1.1-1.35c-5.83,3.49-11.71,6.91-16.88,11.39l.52.84,6.47-3.86c-2.42,2.55-5.33,4.31-7.91,6.45a23.31,23.31,0,0,0-4.17,5.12c-.41.63-.06,1.76-.06,3.2a65.37,65.37,0,0,1,5.59-4.12c1.94-1.13,4-1.85,6.2-.14.57.44,1.65.23,2.49.32-.19-1-.07-2.55-.63-2.86a25.38,25.38,0,0,0-4.95-1.63c4.88-1.19,10-2.67,10.18-9.36Zm36.57,76.33L226,173c3.09,3.74,6.11,7.55,9.35,11.15.55.61,2.07.35,3.14.49.13-1,.76-2.49.3-3-2.3-2.75-3-7.38-8-7.16-.64,0-1.27-.83-2-1.16S227.13,172.58,226.28,172.25ZM238.19,158c-2.08-1.85-3.17-3.71-6-2.71-1.92.69-4.18.39-6.26.68a27.68,27.68,0,0,0-3.52.93c1.09,1.07,2.1,2.91,3.3,3.05a34.27,34.27,0,0,0,8.19-.46A23.53,23.53,0,0,0,238.19,158Zm33.27-29.46c-3.95,3.3.42,6.95-2.71,9.48l5,1.65C272.94,135.63,272.27,132.42,271.46,128.49ZM240.56,162,257,166.32C255.31,163.24,247.43,161.17,240.56,162Zm2.1,2.48-.41,1q4.77,2.46,9.55,4.91l.61-1.2C248.41,169.09,247.31,163.44,242.66,164.51Zm-74.88-23.36-.44,1.13c2.07,2.92,4.85,2.34,7.66,1.61l.25-1.17Zm78.61,29.7.29-.61a56.72,56.72,0,0,1-5.82-4.71c-1.73-1.78-2.46-1-3.62,1Zm-10.49-3.4c2.08,3.09,4.61,5.38,9.47,4.63C241.69,170.27,238.79,168.86,235.9,167.45Zm22.55-3.89c-2.43-2.77-8.73-4.34-12.5-3.47Zm-96.08-35.32,1.18.13,2.12-9.58-1.35-.25Zm12.9,16.67,0,1.16c3.81,1.74,6.33,1.79,9.2,0Z" transform="translate(0 0.28)"/><path class="cls-5" d="M217.29,150.71c.12,3.07-.83,4.9-3.63,5.48a32.54,32.54,0,0,0-6.41,2.13c3.38-.31,5.64.33,4.77,4.53,1.7-2.26.8-5.88,4.79-6.58,4.2-.74,3.82,3.73,6.84,4.35-12.78,7.47-30.9,6.74-33.21-1.25l2.62.42c-1.67-2.44-4.06-5-5.29-8a7.15,7.15,0,0,1,1.2-6.08,57.88,57.88,0,0,1,9.14-8.17c2.63-2,5.74-2.06,9.19-.73a31.25,31.25,0,0,0-.92,4.14c-.16,1.83-.58,3.91.07,5.48,1,2.49,1.23,4.11-1.67,5.12-.54.18-.93.81-1.34,1.49,2.41-1.19,4.78-2.65,6.71-.14-.13-1.34-.25-2.8-.4-4.25a1.44,1.44,0,0,0-.28-.77c-2.94-3.49-2.76-8.13.85-11a124.07,124.07,0,0,1,11.88-8.51c4.51-2.82,11.44-1.84,15.14,1.45l-1.93-3.37c1.9-4.24,3.63-8.09,5.35-11.94l-1-.44c-.57,1.35-1.21,2.67-1.69,4-1.83,5.28-3.59,6.83-7.76,6.7-3.83-.11-5.18-1.46-7.13-6.76a6.35,6.35,0,0,0,0,2.35c1.76,3.9-.48,5.69-3.51,7.29-2.2,1.15-4.28,2.55-6.11,3.66-.61-2.78-1.26-5.22-1.67-7.71-1-6,3.92-13.24,9.72-14.51,4.09-.89,4.21-1.48,1-5.53,1.59-3.18,4.64-4.1,7.75-5a5.21,5.21,0,0,0,2.41-1.28c2.63-2.88,7.79-3.1,11.73.4l-7,.39c2,.62,3.33,1.47,4.59,1.34s2.62-1.19,4.39-2.08c-.21,2.47-.36,4.24-.56,6.65,1.3-1.54,2.1-3.26,2.89-3.26,1.2,0,2.42,1.17,3.58,1.92a3.54,3.54,0,0,1,1.17,1.17c.82,1.44,4.06,2.5,1.93,4.34a4.49,4.49,0,0,1-6.49-.4,5.07,5.07,0,0,0-2.31-1.19c4.53,5.53,2.45,11.55,1.25,17.28-1.24,6-3.87,11.36-9.78,14.61l3.54-.32c.2,4.74-3.78,5.3-6.51,7.45a25.62,25.62,0,0,1,4.37-1.28,35.6,35.6,0,0,1,6.28-.12c1.63.1,3.28,1,4.85.8,2.56-.25,3.31,1,3.68,3.1,1,5.42-1.8,9.19-7.3,8.92-3.64-.19-7.2-1.65-10.84-2.27a15.83,15.83,0,0,0-5.66,0c-2.56.5-4.6.62-5.09-2.66C222.92,156.07,219.15,155.5,217.29,150.71ZM213.66,138c5.25,2.72,8.75,5.84,7.35,12.18.81-5.78,4.28-4.05,7.38-3.56L221.45,143l.13-1.33,9.12-2.88c-2.77-.11-5.48.58-8.17.55S217.17,138.55,213.66,138Zm28-33.95h-9.91c.18.85,1.1,2.54.68,3.77-.77,2.27-2.13,4.2-5.33,3.95-2.21-.17-4.5.64-6.76,1,2.18.56,4.6-.34,6.09.46,1.3.71,1.57,3.34,2.14,4.77C230.38,111.24,233.54,105.65,241.64,104Zm-37.73,57.55c-4.56-1.91-6.75-4.8-5.81-9.33.79-3.77,2.61-7.32,4-11.16l-6.72,9.39H192c5.73,2.54,5.42,8.54,8,12.26Zm41.72-13-7.7,2.23.07.38,5.5.4Z" transform="translate(0 0.28)"/><path class="cls-5" d="M225.49,93.23c3.5.24,6.84-2.89,10.25.55l-15.48,8.45c1.94,4.08,1.67,4.77-2.26,5.94-6.11,1.8-9.81,11-6.87,17.09,2.21,4.54-.45,8.75-5.5,8.73-2.4,0-4.81,0-7.53,0l1.31-8.56-.72-.07c-.78,2-1.4,4.16-2.37,6.1-1.63,3.23-2.89,3.42-5.83,1.18-.74-.56-1.43-1.19-2.14-1.79l-.68.71,6,5.84c-3.85,1.82-5.29,8.11-11.33,6.78-4.07-.9-8.19-2-10-5.79-1.38.57-3,1.78-4.51,1.72-2.36-.09-3.25-2.28-3.21-4.37.11-7.58,0-15.31,7.23-20.4,2.3-1.62,4.49-3,6.82,0,.46.61,1.52.77,2.44,1.21l-.48,2.72.6.18a29.43,29.43,0,0,0,1.26-3.17c.86-3.15,2.39-4.08,5.62-3.31,1.78.42,3.57.82,5.35,1.22l.22-1L182.42,111c-1.06-3.2,1.28-6.1,6.34-7.21l-1.41-3.36a45.28,45.28,0,0,1,6.35-1.73c.32,0,1.64,2.43,1.32,3.32-.89,2.47-.12,3.51,1.84,5.1s3.47,4.3,4.57,6.78c.4.88-.6,3.11-1.6,3.76-3.84,2.5-7.58,5.36-12.63,5.34a5.42,5.42,0,0,0-3.79,2.15c-1.89,2.75-4.06,3.58-7.27,2.38l2.5,2.77h-9.33c0,.1-.07.4,0,.42a25.68,25.68,0,0,1,10.3,6.66c.95,1,3.14.93,4.93.74a38.44,38.44,0,0,1-4-2.1c-2.4-1.63-2.41-3.45-.34-5.46,1.49-1.44,2.85-3,4.27-4.52.31-.32.61-.77,1-.87,4.89-1.37,9.73-3,14.7-3.83,1.26-.23,2.92,1.79,4.46,2.82-.25.3,0,.08-.05.05-2.82-3.58-.88-7.85-1.59-11.74-.14-.76,1.36-2.08,2.37-2.73,1.9-1.2,4-2.11,5.69-3.78-.47.18-.93.37-1.41.52-3.5,1.18-4.7,0-4-3.69.29-1.55.42-3.13.62-4.69L205,97.94c-.21,2.94-.45,5.88-.63,8.82-.12,2.06-1.35,2.81-3.14,2.36-3.39-.85-5.49-5.61-3.68-9.42l-6.73-3.43c.63-2.38,8-4.91,14.4-4l-5.61,2.21.44,1a51.39,51.39,0,0,0,5.79-3c2.22-1.54,3.78-1.53,4.78,1.48,1.35-3.94,4.47-5,11-3.81C223.23,90.39,226,89.86,225.49,93.23Zm-4.77.8c-5.71,3.34-5.71,3.34-6.47-.18l-2.48,4.55,4.72,1.72C217.86,98.16,219.22,96.19,220.72,94ZM176.5,121.17l-3.05-3.42c2.47,4-3.48,4.06-3.54,6.9Z" transform="translate(0 0.28)"/><path class="cls-5" d="M269.06,143.51a14.66,14.66,0,0,0,.72-1.7,12.54,12.54,0,0,0,.27-1.77c2.9.82,4.08,2.72,3.84,5.45a4.9,4.9,0,0,1-1.44,2.74c.46,4.43.31,4.53-4.77,5.36a40.76,40.76,0,0,0-5.37,1.63l.71,2.58a40,40,0,0,1,4.29-2.8c.63-.32,1.6,0,2.42.1a6.71,6.71,0,0,1-.61,2.33c-2.62,3.44-11,4.16-14,1.1a4.26,4.26,0,0,1-.67-3.22,13.63,13.63,0,0,1,1.59-3.45c3.63.33,7.26.34,9.85-3.39-1.9.75-3.54,1.87-5.22,1.92s-4.23-.52-4.81-1.64c-.7-1.36.28-3.58.44-4.77-3-.4-7-.84-11-1.49-2.81-.46-3.42-2.31-2.11-4.64,1.61-2.85,3.43-5.58,4.94-8l9.48,6.09-1,3.17,5.38-6.88c1.65,5-.26,8.43-1.05,12a16.63,16.63,0,0,0,2.58-15.39c-.39.09-.71.1-.73.18-.89,3.14-2.73,5.1-6.21,4.75-3-.3-6.39-3.94-6.68-7.41a35,35,0,0,1,.32-6.29c.2-2,.74-3.93.85-5.91.24-4.72.32-4.63,5.14-3.79a13,13,0,0,1,9.83,6.94c-1.76,2.12-3,3.85-4.52,5.39a5.78,5.78,0,0,1-2.67,1.59c-.45.12-1.69-.84-1.65-1.21a8.6,8.6,0,0,1,1.15-2.7,9.06,9.06,0,0,0,1.35-3.68L257,120.37,254.79,117a34.06,34.06,0,0,0,.71,6c.37,1.22,1.35,2.81,2.4,3.12s2.52-.69,3.68-1.34c.62-.35.86-1.37,1.48-1.76,1.29-.82,3.3-2.35,4-1.92a6.18,6.18,0,0,1,2.69,4.31c.07,1.88-1.16,3.81-1.54,4.89v13.07Z" transform="translate(0 0.28)"/><path class="cls-5" d="M189.71,95.92l-4.25,4c-.19,6.69-5.3,8.17-10.18,9.36a25.38,25.38,0,0,1,4.95,1.63c.56.31.44,1.87.63,2.86-.84-.09-1.92.12-2.49-.32-2.18-1.71-4.26-1-6.2.14a65.37,65.37,0,0,0-5.59,4.12c0-1.44-.35-2.57.06-3.2a23.31,23.31,0,0,1,4.17-5.12c2.58-2.14,5.49-3.9,7.91-6.45l-6.47,3.86-.52-.84c5.17-4.48,11.05-7.9,16.88-11.39Z" transform="translate(0 0.28)"/><path class="cls-5" d="M226.28,172.25c.85.33,1.72.6,2.54,1s1.32,1.18,2,1.16c5-.22,5.73,4.41,8,7.16.46.54-.17,2-.3,3-1.07-.14-2.59.12-3.14-.49-3.24-3.6-6.26-7.41-9.35-11.15Z" transform="translate(0 0.28)"/><path class="cls-5" d="M238.19,158a23.53,23.53,0,0,1-4.29,1.49,34.27,34.27,0,0,1-8.19.46c-1.2-.14-2.21-2-3.3-3.05a27.68,27.68,0,0,1,3.52-.93c2.08-.29,4.34,0,6.26-.68C235,154.24,236.11,156.1,238.19,158Z" transform="translate(0 0.28)"/><path class="cls-5" d="M271.46,128.49c.81,3.93,1.48,7.14,2.3,11.13l-5-1.65C271.88,135.44,267.51,131.79,271.46,128.49Z" transform="translate(0 0.28)"/><path class="cls-5" d="M240.56,162c6.87-.86,14.75,1.21,16.43,4.29Z" transform="translate(0 0.28)"/><path class="cls-5" d="M242.66,164.51c4.65-1.07,5.75,4.58,9.75,4.74l-.61,1.2q-4.78-2.44-9.55-4.91Z" transform="translate(0 0.28)"/><path class="cls-5" d="M167.78,141.15l7.47,1.57-.25,1.17c-2.81.73-5.59,1.31-7.66-1.61Z" transform="translate(0 0.28)"/><path class="cls-5" d="M246.39,170.85l-9.15-4.32c1.16-2,1.89-2.78,3.62-1a56.72,56.72,0,0,0,5.82,4.71Z" transform="translate(0 0.28)"/><path class="cls-5" d="M235.9,167.45c2.89,1.41,5.79,2.82,9.47,4.63C240.51,172.83,238,170.54,235.9,167.45Z" transform="translate(0 0.28)"/><path class="cls-5" d="M258.45,163.56,246,160.09C249.72,159.22,256,160.79,258.45,163.56Z" transform="translate(0 0.28)"/><path class="cls-5" d="M162.37,128.24l1.95-9.7,1.35.25-2.12,9.58Z" transform="translate(0 0.28)"/><path class="cls-5" d="M175.27,144.91l9.22,1.13c-2.87,1.82-5.39,1.77-9.2,0Z" transform="translate(0 0.28)"/><path class="cls-1" d="M213.66,138c3.51.58,6.19,1.33,8.87,1.37s5.4-.66,8.17-.55l-9.12,2.88-.13,1.33,6.94,3.59c-3.1-.49-6.57-2.22-7.38,3.56C222.41,143.81,218.91,140.69,213.66,138Z" transform="translate(0 0.28)"/><path class="cls-1" d="M241.64,104c-8.1,1.63-11.26,7.22-13.09,14-.57-1.43-.84-4.06-2.14-4.77-1.49-.8-3.91.1-6.09-.46,2.26-.38,4.55-1.19,6.76-1,3.2.25,4.56-1.68,5.33-3.95.42-1.23-.5-2.92-.68-3.77Z" transform="translate(0 0.28)"/><path class="cls-1" d="M203.91,161.57,200,162.73c-2.59-3.72-2.28-9.72-8-12.26h3.39l6.72-9.39c-1.43,3.84-3.25,7.39-4,11.16C197.16,156.77,199.35,159.66,203.91,161.57Z" transform="translate(0 0.28)"/><path class="cls-1" d="M245.63,148.55l-2.13,3-5.5-.4-.07-.38Z" transform="translate(0 0.28)"/><path class="cls-1" d="M220.72,94c-1.5,2.16-2.86,4.13-4.23,6.09l-4.72-1.72,2.48-4.55C215,97.37,215,97.37,220.72,94Z" transform="translate(0 0.28)"/><path class="cls-1" d="M176.5,121.17l-6.59,3.48c.06-2.84,6-2.88,3.54-6.9Z" transform="translate(0 0.28)"/><rect class="cls-11" x="132.82" y="37.38" width="9.57" height="213.23"/><path class="cls-12" d="M27.94,89.63c0,27,23.52,37.7,23.52,37.7s-25-10.75-25-37.7S49.45,54,49.45,54,27.94,62.67,27.94,89.63Z" transform="translate(0 0.28)"/><path class="cls-12" d="M74.46,89.3a10.8,10.8,0,0,1-5.32,9.44s6.23-2.67,6.23-9.37a9.49,9.49,0,0,0-5.73-8.86S74.46,82.6,74.46,89.3Z" transform="translate(0 0.28)"/><path class="cls-12" d="M101.72,89.63c0,27-23.52,37.7-23.52,37.7s25-10.75,25-37.7S80.21,54,80.21,54,101.72,62.67,101.72,89.63Z" transform="translate(0 0.28)"/></g></svg>